<svg width="330" height="330" viewBox="0 0 330 330" fill="none" xmlns="http://www.w3.org/2000/svg">
<path fill-rule="evenodd" clip-rule="evenodd" d="M0 0C45.5634 0 82.5 36.9364 82.5 82.5C36.9366 82.5 0 45.5636 0 0ZM165 0C119.437 0 82.5 36.9364 82.5 82.5C36.9366 82.5 0 119.436 0 165C0 210.563 36.9366 247.5 82.5 247.5C36.9366 247.5 0 284.437 0 330C45.5634 330 82.5 293.063 82.5 247.5C82.5 293.063 119.437 330 165 330C210.563 330 247.5 293.063 247.5 247.5C247.5 293.063 284.437 330 330 330C330 284.437 293.063 247.5 247.5 247.5C293.063 247.5 330 210.563 330 165C330 119.436 293.063 82.5 247.5 82.5C293.063 82.5 330 45.5636 330 0C284.437 0 247.5 36.9364 247.5 82.5C247.5 36.9364 210.563 0 165 0ZM247.5 247.5C247.5 201.937 210.563 165 165 165C165 210.563 201.937 247.5 247.5 247.5ZM165 165C210.563 165 247.5 128.064 247.5 82.5C247.5 128.064 284.437 165 330 165C284.437 165 247.5 201.937 247.5 247.5C201.937 247.5 165 284.437 165 330C165 284.437 128.063 247.5 82.5 247.5C128.063 247.5 165 210.563 165 165ZM165 165C119.437 165 82.5 201.937 82.5 247.5C82.5 201.937 45.5634 165 0 165C45.5634 165 82.5 128.064 82.5 82.5C82.5 128.064 119.437 165 165 165ZM165 165C165 119.436 201.937 82.5 247.5 82.5C201.937 82.5 165 45.5636 165 0C165 45.5636 128.063 82.5 82.5 82.5C128.063 82.5 165 119.436 165 165Z" fill="black" fill-opacity="0.05"/>
</svg>
