<svg width="782" height="121" viewBox="0 0 782 121" fill="none" xmlns="http://www.w3.org/2000/svg">
<g filter="url(#filter0_d_53_2)">
<path d="M28 82.2V83H12.3V82.2C17.5 82.2 18.9 81.5 20.3 77.3L41.8 10.5H43.5L66.7 82.2H72.5V83H49.8V82.2H56.3C56.1 81 55.7 79.5 55.3 78.2L49.4 59.9H27L21.2 77.7C20.9 78.8 20.8 79.4 20.8 80.1C20.8 81.4 21.4 82.2 25.3 82.2H28ZM27.3 59.1H49.2L38.4 24.3L27.3 59.1ZM108.362 37.9C108.362 36.3 107.162 35.3 104.562 35.3H101.362V34.5H114.962V35.3H113.562C111.262 35.3 109.962 37 108.762 40.3L91.2617 86.8C86.0617 100.6 82.3617 105 76.4617 105C72.3617 105 69.6617 102.1 69.6617 98.3C69.6617 97 69.9617 95.6 70.5617 94.4H70.9617C71.8617 97 74.2617 98 76.6617 98C79.4617 98 86.5617 97.3 90.3617 86.7L91.7617 83L74.2617 39.9C72.7617 36.4 72.1617 35.3 69.8617 35.3H67.9617V34.5H90.4617V35.3H83.3617C83.3617 36.8 83.4617 38.2 84.3617 40.3L96.6617 71L107.862 40C108.162 39.2 108.362 38.4 108.362 37.9ZM145.637 34.5H161.437V78.8C161.437 80.8 161.837 82.2 164.137 82.2H167.837V83H159.137C153.837 83 151.937 80 151.937 74.1V72.3C148.437 80.9 142.637 84 136.037 84C126.037 84 122.537 79.9 122.537 67.7V35.3H116.237V34.5H132.037V72.2C132.037 79.2 133.237 82.6 138.537 82.6C143.337 82.6 148.737 78.9 151.937 70.3V35.3H145.637V34.5ZM189.613 83.2C196.212 83.2 199.813 80 199.813 74.1C199.813 69 195.813 65.5 188.613 62.1C180.513 58.3 174.713 54.8 174.713 46.8C174.713 39.4 180.713 33.5 192.413 33.5C202.413 33.5 206.913 37.6 206.913 42.2C206.913 46.9 202.313 49.1 199.613 49.2L199.313 48.9C200.613 47.4 201.113 45.3 201.113 43C201.113 38.9 199.413 34.3 192.413 34.3C185.013 34.3 182.413 38.8 182.413 43.1C182.413 49.2 186.913 51.8 193.613 54.9C202.413 58.9 207.513 62.9 207.513 70C207.513 78.6 200.413 84 189.613 84C178.513 84 173.313 79.4 173.313 74C173.313 70 176.913 67.4 180.913 67.4L181.213 67.7C180.113 69.3 179.813 71.3 179.813 73.2C179.813 78.3 182.413 83.2 189.613 83.2ZM234.821 82.2V83H212.721V82.2H219.021V8.8H212.721V7.99999H228.421V45.1C232.021 36.6 238.321 33.5 244.821 33.5C254.821 33.5 258.421 37.6 258.421 49.8V82.2H264.721V83H242.621V82.2H248.921V45.3C248.921 38.3 247.621 34.9 242.421 34.9C237.621 34.9 231.621 38.6 228.521 47.4V82.2H234.821ZM290.697 82.2V83H268.897V82.2H275.197V35.3H268.897V34.5H284.097L284.597 45.3C288.097 36.7 293.897 33.5 300.297 33.5C308.897 33.5 312.697 36.7 313.597 45.5C317.097 36.9 322.997 33.5 329.397 33.5C339.397 33.5 342.997 37.6 342.997 49.8V82.2H349.297V83H327.397V82.2H333.497V45.3C333.497 38.3 332.297 34.9 326.997 34.9C322.297 34.9 316.897 38.6 313.797 47.3V82.2H320.097V83H298.297V82.2H304.397V45.3C304.397 38.3 303.097 34.9 297.797 34.9C293.197 34.9 287.797 38.6 284.697 47.4V82.2H290.697ZM388.367 83C383.567 83 381.767 80.8 381.367 76.3C379.167 80.6 374.667 84 367.367 84C359.267 84 354.667 80.6 354.667 74.5C354.667 66.9 361.267 62.1 373.967 60.4L381.167 59.4V49.9C381.167 40.3 380.767 34.2 372.467 34.2C364.667 34.2 363.367 40.3 363.367 45.7C363.367 48.5 363.867 51 365.367 53L365.067 53.3C359.267 52.9 356.067 49.5 356.067 44.7C356.067 39.7 360.567 33.5 372.467 33.5C385.867 33.5 390.667 39.3 390.667 52.3V78.8C390.667 80.8 391.067 82.2 393.267 82.2H396.967V83H388.367ZM364.467 73.5C364.467 78.7 366.167 82 371.467 82C376.067 82 379.267 79.4 381.167 74.8V60.2L374.167 61.3C366.567 62.5 364.467 67.8 364.467 73.5ZM423.223 82.2V83H401.123V82.2H407.423V35.3H401.123V34.5H416.323L416.823 45.3C420.323 36.7 426.623 33.5 433.223 33.5C443.223 33.5 446.823 37.6 446.823 49.8V82.2H453.123V83H431.023V82.2H437.323V45.3C437.323 38.3 436.023 34.9 430.823 34.9C426.023 34.9 420.023 38.6 416.923 47.4V82.2H423.223ZM502.248 42.8C511.948 50.2 517.448 56.5 517.448 65.9C517.448 77.5 509.148 84 496.948 84C490.648 84 486.648 82.5 483.748 82.5C482.648 82.5 481.648 82.7 480.748 83H480.048V65.6H481.048C481.748 78.4 487.648 83.1 496.848 83.1C505.548 83.1 509.548 77.6 509.548 70.9C509.548 63.1 505.748 58.3 495.748 50.7C486.148 43.4 480.548 37.2 480.548 27.8C480.548 16.7 489.148 10.5 500.748 10.5C506.848 10.5 509.148 11.9 512.248 11.9C513.348 11.9 514.248 11.8 515.148 11.5H515.848V27.5H514.848C513.448 15.3 510.148 11.5 501.048 11.5C492.048 11.5 488.448 16.9 488.448 23.2C488.448 31.1 492.448 35.3 502.248 42.8ZM558.387 83C553.587 83 551.787 80.8 551.387 76.3C549.187 80.6 544.687 84 537.387 84C529.287 84 524.687 80.6 524.687 74.5C524.687 66.9 531.287 62.1 543.987 60.4L551.187 59.4V49.9C551.187 40.3 550.787 34.2 542.487 34.2C534.687 34.2 533.387 40.3 533.387 45.7C533.387 48.5 533.887 51 535.387 53L535.087 53.3C529.287 52.9 526.087 49.5 526.087 44.7C526.087 39.7 530.587 33.5 542.487 33.5C555.887 33.5 560.687 39.3 560.687 52.3V78.8C560.687 80.8 561.087 82.2 563.287 82.2H566.987V83H558.387ZM534.487 73.5C534.487 78.7 536.187 82 541.487 82C546.087 82 549.287 79.4 551.187 74.8V60.2L544.187 61.3C536.587 62.5 534.487 67.8 534.487 73.5ZM593.443 33.5C604.643 33.5 608.543 38 608.543 43.7C608.543 48.8 604.343 52.5 600.043 53L599.743 52.7C601.043 50.3 601.443 47.4 601.443 44.4C601.443 40.1 600.543 34.3 593.443 34.3C584.443 34.3 582.643 43.5 582.643 59.4C582.643 73.9 584.543 82.3 596.143 82.3C603.543 82.3 607.743 76.2 607.743 71H608.643C608.643 76.7 603.743 84 593.343 84C579.443 84 572.343 76.8 572.343 59.4C572.343 41.9 579.943 33.5 593.443 33.5ZM635.895 82.2V83H613.795V82.2H620.095V8.8H613.795V7.99999H629.495V45.1C633.095 36.6 639.395 33.5 645.895 33.5C655.895 33.5 659.495 37.6 659.495 49.8V82.2H665.795V83H643.695V82.2H649.995V45.3C649.995 38.3 648.695 34.9 643.495 34.9C638.695 34.9 632.695 38.6 629.595 47.4V82.2H635.895ZM704.871 83C700.071 83 698.271 80.8 697.871 76.3C695.671 80.6 691.171 84 683.871 84C675.771 84 671.171 80.6 671.171 74.5C671.171 66.9 677.771 62.1 690.471 60.4L697.671 59.4V49.9C697.671 40.3 697.271 34.2 688.971 34.2C681.171 34.2 679.871 40.3 679.871 45.7C679.871 48.5 680.371 51 681.871 53L681.571 53.3C675.771 52.9 672.571 49.5 672.571 44.7C672.571 39.7 677.071 33.5 688.971 33.5C702.371 33.5 707.171 39.3 707.171 52.3V78.8C707.171 80.8 707.571 82.2 709.771 82.2H713.471V83H704.871ZM680.971 73.5C680.971 78.7 682.671 82 687.971 82C692.571 82 695.771 79.4 697.671 74.8V60.2L690.671 61.3C683.071 62.5 680.971 67.8 680.971 73.5ZM739.727 82.2V83H717.627V82.2H723.927V35.3H717.627V34.5H732.827L733.327 45.3C736.827 36.7 743.127 33.5 749.727 33.5C759.727 33.5 763.327 37.6 763.327 49.8V82.2H769.627V83H747.527V82.2H753.827V45.3C753.827 38.3 752.527 34.9 747.327 34.9C742.527 34.9 736.527 38.6 733.427 47.4V82.2H739.727Z" fill="#303030"/>
</g>
<defs>
<filter id="filter0_d_53_2" x="0.299805" y="-7.62939e-06" width="781.327" height="121" filterUnits="userSpaceOnUse" color-interpolation-filters="sRGB">
<feFlood flood-opacity="0" result="BackgroundImageFix"/>
<feColorMatrix in="SourceAlpha" type="matrix" values="0 0 0 0 0 0 0 0 0 0 0 0 0 0 0 0 0 0 127 0" result="hardAlpha"/>
<feOffset dy="4"/>
<feGaussianBlur stdDeviation="6"/>
<feComposite in2="hardAlpha" operator="out"/>
<feColorMatrix type="matrix" values="0 0 0 0 0 0 0 0 0 0 0 0 0 0 0 0 0 0 0.2 0"/>
<feBlend mode="normal" in2="BackgroundImageFix" result="effect1_dropShadow_53_2"/>
<feBlend mode="normal" in="SourceGraphic" in2="effect1_dropShadow_53_2" result="shape"/>
</filter>
</defs>
</svg>
